# xmcd
#
# Track frame offsets: 
#        150
#        9625
#        23870
#        35060
#        44640
#        56490
#        71320
#        90682
#        105435
#        122870
#        146915
#        156747
#        175397
#        196082
#        213290
#        227492
#        240122
#
# Disc length: 3295 seconds
#
# Revision: 0
# Processed by: cddbd v1.4PL0 Copyright (c) Steve Scherf et al.
# Submitted via: ExactAudioCopy v0.95a3
#
DISCID=e90cdd11
DTITLE=John Rankin - Guitar Gumbo
DYEAR=2002
DGENRE=Folk
TTITLE0=Big Chief
TTITLE1=Come Back Baby
TTITLE2=Blue Monk
TTITLE3=Iki Iko
TTITLE4=Ain't She Sweet
TTITLE5=Bogalusa Strut
TTITLE6=Do You Know What It Means To Miss New Orleans
TTITLE7=Corrina
TTITLE8=Don't Get Around Much Anymore
TTITLE9=Tin Roof Blues
TTITLE10=Mr. Fotdella
TTITLE11=Some Of These Days
TTITLE12=If I Had You
TTITLE13=On The Sunny Side Of The Street
TTITLE14=Michigan Water
TTITLE15=Chicken Gumbo
TTITLE16=Big Doodle
EXTD=
EXTT0=
EXTT1=
EXTT2=
EXTT3=
EXTT4=
EXTT5=
EXTT6=
EXTT7=
EXTT8=
EXTT9=
EXTT10=
EXTT11=
EXTT12=
EXTT13=
EXTT14=
EXTT15=
EXTT16=
PLAYORDER=
